<mxfile host="app.diagrams.net" modified="2024-05-10T06:40:49.739Z" agent="Mozilla/5.0 (Macintosh; Intel Mac OS X 10_15_7) AppleWebKit/537.36 (KHTML, like Gecko) Chrome/124.0.0.0 Safari/537.36" etag="Nwj5wsLptR1nQuXs9HtZ" version="24.3.1" type="github">
  <diagram name="Page-1" id="gXQYtVQJtTQVYg1vzYCy">
    <mxGraphModel dx="954" dy="606" grid="1" gridSize="10" guides="1" tooltips="1" connect="1" arrows="1" fold="1" page="1" pageScale="1" pageWidth="850" pageHeight="1100" math="0" shadow="0">
      <root>
        <mxCell id="0" />
        <mxCell id="1" parent="0" />
        <mxCell id="33vtXqFPqnVzqX_2hS3p-32" style="edgeStyle=orthogonalEdgeStyle;rounded=0;orthogonalLoop=1;jettySize=auto;html=1;" edge="1" parent="1" source="33vtXqFPqnVzqX_2hS3p-1">
          <mxGeometry relative="1" as="geometry">
            <mxPoint x="650" y="440" as="targetPoint" />
          </mxGeometry>
        </mxCell>
        <mxCell id="33vtXqFPqnVzqX_2hS3p-1" value="" style="whiteSpace=wrap;html=1;aspect=fixed;" vertex="1" parent="1">
          <mxGeometry x="150" y="160" width="180" height="180" as="geometry" />
        </mxCell>
        <mxCell id="33vtXqFPqnVzqX_2hS3p-13" style="edgeStyle=orthogonalEdgeStyle;rounded=0;orthogonalLoop=1;jettySize=auto;html=1;entryX=0;entryY=0.5;entryDx=0;entryDy=0;exitX=1;exitY=0.25;exitDx=0;exitDy=0;" edge="1" parent="1" source="33vtXqFPqnVzqX_2hS3p-2" target="33vtXqFPqnVzqX_2hS3p-10">
          <mxGeometry relative="1" as="geometry" />
        </mxCell>
        <mxCell id="33vtXqFPqnVzqX_2hS3p-14" style="edgeStyle=orthogonalEdgeStyle;rounded=0;orthogonalLoop=1;jettySize=auto;html=1;entryX=0;entryY=0.5;entryDx=0;entryDy=0;" edge="1" parent="1" source="33vtXqFPqnVzqX_2hS3p-2" target="33vtXqFPqnVzqX_2hS3p-11">
          <mxGeometry relative="1" as="geometry" />
        </mxCell>
        <mxCell id="33vtXqFPqnVzqX_2hS3p-31" style="edgeStyle=orthogonalEdgeStyle;rounded=0;orthogonalLoop=1;jettySize=auto;html=1;" edge="1" parent="1" source="33vtXqFPqnVzqX_2hS3p-2" target="33vtXqFPqnVzqX_2hS3p-30">
          <mxGeometry relative="1" as="geometry" />
        </mxCell>
        <mxCell id="33vtXqFPqnVzqX_2hS3p-2" value="" style="whiteSpace=wrap;html=1;aspect=fixed;" vertex="1" parent="1">
          <mxGeometry x="480" y="160" width="180" height="180" as="geometry" />
        </mxCell>
        <mxCell id="33vtXqFPqnVzqX_2hS3p-3" value="Instance1" style="rounded=1;whiteSpace=wrap;html=1;" vertex="1" parent="1">
          <mxGeometry x="180" y="180" width="120" height="60" as="geometry" />
        </mxCell>
        <mxCell id="33vtXqFPqnVzqX_2hS3p-4" value="instance1" style="rounded=1;whiteSpace=wrap;html=1;" vertex="1" parent="1">
          <mxGeometry x="510" y="180" width="120" height="60" as="geometry" />
        </mxCell>
        <mxCell id="33vtXqFPqnVzqX_2hS3p-5" value="instance2" style="rounded=1;whiteSpace=wrap;html=1;" vertex="1" parent="1">
          <mxGeometry x="180" y="260" width="120" height="60" as="geometry" />
        </mxCell>
        <mxCell id="33vtXqFPqnVzqX_2hS3p-6" value="instance2" style="rounded=1;whiteSpace=wrap;html=1;" vertex="1" parent="1">
          <mxGeometry x="510" y="260" width="120" height="60" as="geometry" />
        </mxCell>
        <mxCell id="33vtXqFPqnVzqX_2hS3p-8" value="" style="endArrow=classic;startArrow=classic;html=1;rounded=0;exitX=1;exitY=0.5;exitDx=0;exitDy=0;" edge="1" parent="1" source="33vtXqFPqnVzqX_2hS3p-3" target="33vtXqFPqnVzqX_2hS3p-4">
          <mxGeometry width="50" height="50" relative="1" as="geometry">
            <mxPoint x="370" y="230" as="sourcePoint" />
            <mxPoint x="420" y="180" as="targetPoint" />
          </mxGeometry>
        </mxCell>
        <mxCell id="33vtXqFPqnVzqX_2hS3p-9" value="" style="endArrow=classic;startArrow=classic;html=1;rounded=0;exitX=1;exitY=0.5;exitDx=0;exitDy=0;" edge="1" parent="1" source="33vtXqFPqnVzqX_2hS3p-5" target="33vtXqFPqnVzqX_2hS3p-6">
          <mxGeometry width="50" height="50" relative="1" as="geometry">
            <mxPoint x="340" y="320" as="sourcePoint" />
            <mxPoint x="390" y="270" as="targetPoint" />
          </mxGeometry>
        </mxCell>
        <mxCell id="33vtXqFPqnVzqX_2hS3p-10" value="OSB" style="ellipse;whiteSpace=wrap;html=1;" vertex="1" parent="1">
          <mxGeometry x="730" y="190" width="120" height="80" as="geometry" />
        </mxCell>
        <mxCell id="33vtXqFPqnVzqX_2hS3p-11" value="Applications Servers" style="shape=parallelogram;perimeter=parallelogramPerimeter;whiteSpace=wrap;html=1;fixedSize=1;" vertex="1" parent="1">
          <mxGeometry x="720" y="320" width="120" height="60" as="geometry" />
        </mxCell>
        <mxCell id="33vtXqFPqnVzqX_2hS3p-12" value="Oracle DBs" style="shape=cylinder3;whiteSpace=wrap;html=1;boundedLbl=1;backgroundOutline=1;size=15;" vertex="1" parent="1">
          <mxGeometry x="750" y="40" width="60" height="80" as="geometry" />
        </mxCell>
        <mxCell id="33vtXqFPqnVzqX_2hS3p-15" style="edgeStyle=orthogonalEdgeStyle;rounded=0;orthogonalLoop=1;jettySize=auto;html=1;entryX=0;entryY=0.5;entryDx=0;entryDy=0;entryPerimeter=0;" edge="1" parent="1" source="33vtXqFPqnVzqX_2hS3p-2" target="33vtXqFPqnVzqX_2hS3p-12">
          <mxGeometry relative="1" as="geometry" />
        </mxCell>
        <mxCell id="33vtXqFPqnVzqX_2hS3p-20" style="edgeStyle=orthogonalEdgeStyle;rounded=0;orthogonalLoop=1;jettySize=auto;html=1;entryX=0.5;entryY=0;entryDx=0;entryDy=0;" edge="1" parent="1" source="33vtXqFPqnVzqX_2hS3p-16" target="33vtXqFPqnVzqX_2hS3p-17">
          <mxGeometry relative="1" as="geometry" />
        </mxCell>
        <mxCell id="33vtXqFPqnVzqX_2hS3p-16" value="API Consumer" style="shape=umlActor;verticalLabelPosition=bottom;verticalAlign=top;html=1;outlineConnect=0;" vertex="1" parent="1">
          <mxGeometry x="40" y="40" width="30" height="60" as="geometry" />
        </mxCell>
        <mxCell id="33vtXqFPqnVzqX_2hS3p-18" style="edgeStyle=orthogonalEdgeStyle;rounded=0;orthogonalLoop=1;jettySize=auto;html=1;entryX=0.5;entryY=0;entryDx=0;entryDy=0;" edge="1" parent="1" source="33vtXqFPqnVzqX_2hS3p-17" target="33vtXqFPqnVzqX_2hS3p-1">
          <mxGeometry relative="1" as="geometry" />
        </mxCell>
        <mxCell id="33vtXqFPqnVzqX_2hS3p-19" style="edgeStyle=orthogonalEdgeStyle;rounded=0;orthogonalLoop=1;jettySize=auto;html=1;entryX=0.5;entryY=0;entryDx=0;entryDy=0;" edge="1" parent="1" source="33vtXqFPqnVzqX_2hS3p-17" target="33vtXqFPqnVzqX_2hS3p-2">
          <mxGeometry relative="1" as="geometry" />
        </mxCell>
        <mxCell id="33vtXqFPqnVzqX_2hS3p-17" value="Load Balancer" style="rounded=1;whiteSpace=wrap;html=1;" vertex="1" parent="1">
          <mxGeometry x="350" y="30" width="120" height="60" as="geometry" />
        </mxCell>
        <mxCell id="33vtXqFPqnVzqX_2hS3p-25" style="edgeStyle=orthogonalEdgeStyle;rounded=0;orthogonalLoop=1;jettySize=auto;html=1;entryX=0;entryY=0.5;entryDx=0;entryDy=0;" edge="1" parent="1" source="33vtXqFPqnVzqX_2hS3p-21" target="33vtXqFPqnVzqX_2hS3p-24">
          <mxGeometry relative="1" as="geometry" />
        </mxCell>
        <mxCell id="33vtXqFPqnVzqX_2hS3p-21" value="API Developers" style="shape=umlActor;verticalLabelPosition=bottom;verticalAlign=top;html=1;outlineConnect=0;" vertex="1" parent="1">
          <mxGeometry x="100" y="460" width="30" height="60" as="geometry" />
        </mxCell>
        <mxCell id="33vtXqFPqnVzqX_2hS3p-24" value="Repo" style="shape=step;perimeter=stepPerimeter;whiteSpace=wrap;html=1;fixedSize=1;" vertex="1" parent="1">
          <mxGeometry x="365" y="470" width="120" height="80" as="geometry" />
        </mxCell>
        <mxCell id="33vtXqFPqnVzqX_2hS3p-27" style="edgeStyle=orthogonalEdgeStyle;rounded=0;orthogonalLoop=1;jettySize=auto;html=1;entryX=0.5;entryY=1;entryDx=0;entryDy=0;" edge="1" parent="1" source="33vtXqFPqnVzqX_2hS3p-26" target="33vtXqFPqnVzqX_2hS3p-1">
          <mxGeometry relative="1" as="geometry" />
        </mxCell>
        <mxCell id="33vtXqFPqnVzqX_2hS3p-26" value="CI/CD Pipeline" style="shape=hexagon;perimeter=hexagonPerimeter2;whiteSpace=wrap;html=1;fixedSize=1;" vertex="1" parent="1">
          <mxGeometry x="360" y="380" width="120" height="80" as="geometry" />
        </mxCell>
        <mxCell id="33vtXqFPqnVzqX_2hS3p-28" style="edgeStyle=orthogonalEdgeStyle;rounded=0;orthogonalLoop=1;jettySize=auto;html=1;entryX=0.544;entryY=1.006;entryDx=0;entryDy=0;entryPerimeter=0;" edge="1" parent="1" source="33vtXqFPqnVzqX_2hS3p-26" target="33vtXqFPqnVzqX_2hS3p-2">
          <mxGeometry relative="1" as="geometry" />
        </mxCell>
        <mxCell id="33vtXqFPqnVzqX_2hS3p-29" value="Application" style="shape=cube;whiteSpace=wrap;html=1;boundedLbl=1;backgroundOutline=1;darkOpacity=0.05;darkOpacity2=0.1;" vertex="1" parent="1">
          <mxGeometry x="630" y="480" width="120" height="80" as="geometry" />
        </mxCell>
        <mxCell id="33vtXqFPqnVzqX_2hS3p-30" value="Internal LB" style="rounded=1;whiteSpace=wrap;html=1;" vertex="1" parent="1">
          <mxGeometry x="560" y="430" width="180" height="30" as="geometry" />
        </mxCell>
        <mxCell id="33vtXqFPqnVzqX_2hS3p-33" value="SQL DB" style="shape=cylinder3;whiteSpace=wrap;html=1;boundedLbl=1;backgroundOutline=1;size=15;" vertex="1" parent="1">
          <mxGeometry x="780" y="540" width="60" height="80" as="geometry" />
        </mxCell>
        <mxCell id="33vtXqFPqnVzqX_2hS3p-34" style="edgeStyle=orthogonalEdgeStyle;rounded=0;orthogonalLoop=1;jettySize=auto;html=1;entryX=0.5;entryY=0;entryDx=0;entryDy=0;entryPerimeter=0;" edge="1" parent="1" source="33vtXqFPqnVzqX_2hS3p-29" target="33vtXqFPqnVzqX_2hS3p-33">
          <mxGeometry relative="1" as="geometry" />
        </mxCell>
      </root>
    </mxGraphModel>
  </diagram>
</mxfile>
